{"accessors":{"accessor_0":{"bufferView":"bufferView_0","byteOffset":0,"byteStride":0,"componentType":5126,"count":486,"min":[0,0,0],"max":[1500,163.5,268.29998779296875],"type":"VEC3"},"accessor_1":{"bufferView":"bufferView_1","byteOffset":0,"byteStride":0,"componentType":5123,"count":2916,"min":[0],"max":[485],"type":"SCALAR"}},"asset":{"generator":"obj2gltf","profile":{"api":"WebGL","version":"1.0"},"version":"1.0","premultipliedAlpha":true},"buffers":{"buffer":{"byteLength":11664,"uri":"data:application/octet-stream;base64,","type":"arraybuffer"}},"bufferViews":{"bufferView_0":{"buffer":"buffer","byteLength":5832,"byteOffset":0,"target":34962},"bufferView_1":{"buffer":"buffer","byteLength":5832,"byteOffset":5832,"target":34963}},"extensionsUsed":[],"images":{},"materials":{"default":{"technique":"technique0","values":{"ambient":[0,0,0,1],"diffuse":[0,0,0,1],"emission":[0.5,0.5,0.5,1],"specular":[0,0,0,1],"shininess":0,"transparency":1}}},"meshes":{"Node-Mesh":{"name":"Node-Mesh","primitives":[{"attributes":{"POSITION":"accessor_0"},"indices":"accessor_1","material":"default","mode":4}]}},"nodes":{"Node":{"name":"Node","meshes":["Node-Mesh"],"children":[],"matrix":[1,0,0,0,0,1,0,0,0,0,1,0,0,0,0,1]}},"samplers":{},"scene":"scene","scenes":{"scene":{"nodes":["Node"]}},"textures":{},"animations":{},"cameras":{},"programs":{"program0":{"attributes":["a_position"],"fragmentShader":"fragmentShader0","vertexShader":"vertexShader0"}},"shaders":{"vertexShader0":{"type":35633,"uri":"data:text/plain;base64,"},"fragmentShader0":{"type":35632,"uri":"data:text/plain;base64,"}},"skins":{},"techniques":{"technique0":{"attributes":{"a_position":"position"},"parameters":{"modelViewMatrix":{"semantic":"MODELVIEW","type":35676},"projectionMatrix":{"semantic":"PROJECTION","type":35676},"ambient":{"type":35666},"diffuse":{"type":35666},"emission":{"type":35666},"specular":{"type":35666},"shininess":{"type":5126},"transparency":{"type":5126},"position":{"semantic":"POSITION","type":35665}},"program":"program0","states":{"enable":[2884,2929]},"uniforms":{"u_modelViewMatrix":"modelViewMatrix","u_projectionMatrix":"projectionMatrix","u_ambient":"ambient","u_diffuse":"diffuse","u_emission":"emission","u_specular":"specular","u_shininess":"shininess","u_transparency":"transparency"}}}}
